<svg id="Capa_1" data-name="Capa 1" xmlns="http://www.w3.org/2000/svg" viewBox="0 0 192 192"><defs><style>.cls-1{fill:#ff5252;}.cls-2{fill:#fff;}</style></defs><title>doctor2</title><rect class="cls-1" width="192" height="192"/><path class="cls-2" d="M101.63,13.81H99.2V11.73a3.24,3.24,0,0,0-6.4,0v2.08H90.37a3,3,0,0,0-3.19,2.74,3,3,0,0,0,3.19,2.73H92.8v2.09a3.24,3.24,0,0,0,6.4,0V19.28h2.43a3,3,0,0,0,3.19-2.73A3,3,0,0,0,101.63,13.81Z" transform="translate(0 0)"/><path class="cls-2" d="M189.58,180.09l-9.34-46.83c-1-5.08-5.22-9.16-11-10.64l-41.92-10.84a8,8,0,0,0-5.36.48,6.55,6.55,0,0,1-2.58-4.88v-9l.33-.24.51-.38h4.1a21.94,21.94,0,0,0,14.89-5.52,15.94,15.94,0,0,0,5.49-13.08l-1.14-15.39v-.23a7.24,7.24,0,0,0-.11-1.24L142.2,45.1a3.06,3.06,0,0,0-3.39-2.56,2.92,2.92,0,0,0-3,2.9l.76,10.2a11.32,11.32,0,0,0-2.62-.31h-.18a6,6,0,0,0-4.33-2.2c-33.17-2.56-42.72-11-49.69-17.24-1.45-1.29-3.83-1.38-7.07-.29-5.63,1.9-15.21,8-15.42,19v.75a11.31,11.31,0,0,0-1.85.28l1-13.33c.52-7.09,4.69-13.42,11.35-17.44l.24.54c1.6,3.59,5.69,6,10.18,6h36.47c4.49,0,8.58-2.41,10.19-6l0-.12A24,24,0,0,1,133,33.78a3.3,3.3,0,0,0,2.89,1.56,3.72,3.72,0,0,0,1.38-.27,2.58,2.58,0,0,0,1.5-3.65A30.28,30.28,0,0,0,127.25,20l2.2-4.93A5.92,5.92,0,0,0,129,9.37,7.93,7.93,0,0,0,123.61,6L105.27,2.79a51.63,51.63,0,0,0-17.71,0L69.22,6a7.94,7.94,0,0,0-5.38,3.39,5.94,5.94,0,0,0-.46,5.71l2,4.55C56.4,24.54,50.72,32.72,50,42L48.52,62.45a7,7,0,0,0-.1,1.13v.23L47.28,79.2a16,16,0,0,0,5.49,13.08A21.94,21.94,0,0,0,67.66,97.8h4.1l.51.38.33.24v9A6.55,6.55,0,0,1,70,112.26a8,8,0,0,0-5.36-.48L22.74,122.61c-5.76,1.49-10,5.57-11,10.65L8.25,150.85A2.83,2.83,0,0,0,10.87,154a3.18,3.18,0,0,0,3.68-2.24l3.51-17.59a8.52,8.52,0,0,1,6.53-6.33L66.5,117a.63.63,0,0,1,.7.26h0l20,33.86a8.4,8.4,0,0,0,2,2.34A10.73,10.73,0,0,0,96,155.77a11.25,11.25,0,0,0,4.58-1,9.24,9.24,0,0,0,4.2-3.67l20-33.86a.62.62,0,0,1,.69-.26l41.92,10.83a8.52,8.52,0,0,1,6.53,6.33L183.28,181a2.28,2.28,0,0,1-.66,2.06,3.11,3.11,0,0,1-2.27.9H160.56l-5.22-26.18a3.19,3.19,0,0,0-3.69-2.24,2.81,2.81,0,0,0-2.61,3.16l5,25.26H37.92l5-25.26a2.81,2.81,0,0,0-2.61-3.16,3.19,3.19,0,0,0-3.69,2.24L31.44,184H11.65a3.11,3.11,0,0,1-2.27-.9A2.28,2.28,0,0,1,8.72,181L12,164.71a2.81,2.81,0,0,0-2.61-3.16,3.18,3.18,0,0,0-3.69,2.23l-3.25,16.3a7.22,7.22,0,0,0,2.07,6.52,10.06,10.06,0,0,0,7.16,2.85H180.36a10.06,10.06,0,0,0,7.15-2.85A7.21,7.21,0,0,0,189.58,180.09ZM69.44,12a1.51,1.51,0,0,1,1-.66L88.83,8.16a43.92,43.92,0,0,1,15.17,0l18.34,3.19h0a1.48,1.48,0,0,1,1,.66,1.14,1.14,0,0,1,.09,1.12l-4.61,10.32a4.59,4.59,0,0,1-4.22,2.49H78.18A4.56,4.56,0,0,1,74,23.45L69.35,13.13A1.16,1.16,0,0,1,69.44,12Zm68.9,67.54a10.92,10.92,0,0,1-3.77,9,14.68,14.68,0,0,1-8,3.65c3.51-3.72,7-8.65,7.93-14.26a10.93,10.93,0,0,0,3.71-.83Zm-80.91,9a10.92,10.92,0,0,1-3.77-9l.18-2.46a10.93,10.93,0,0,0,3.71.83c1,5.61,4.42,10.54,7.93,14.26A14.68,14.68,0,0,1,57.43,88.53ZM99.48,148l-.4.67a2.75,2.75,0,0,1-.19.28l-.06.08-.13.15a3.16,3.16,0,0,1-.51.45l-.12.08a3.83,3.83,0,0,1-2.07.59,3.49,3.49,0,0,1-3.08-1.63L79.65,126.22h32.7Zm16.11-27.26H76.41L74,116.57a11.75,11.75,0,0,0,5-9.19v-4.72a34.35,34.35,0,0,0,17,4.16H96a34.35,34.35,0,0,0,17-4.16v4.72a11.73,11.73,0,0,0,5,9.19Zm0-26.71c-5.91,4.36-10.47,7.22-19.56,7.32-9.09-.1-13.65-3-19.56-7.32-7.84-5.79-12.62-12.85-12.77-18.9a3,3,0,0,0-3.19-2.68H58.05a3,3,0,0,1-3.24-2.77v-6.1a2.34,2.34,0,0,1,0-.38l0-.12a3.13,3.13,0,0,1,3.18-2.27h2.42a3,3,0,0,0,3.19-2.74V54.68c.19-9.27,9.4-13.6,12.31-14.27C85.35,48.6,96.86,56,128.39,58.54a3.09,3.09,0,0,0,3.14,2.27H134a3.15,3.15,0,0,1,3.18,2.27.5.5,0,0,0,0,.12,2.34,2.34,0,0,1,0,.38v6.1A3,3,0,0,1,134,72.45h-2.44a3,3,0,0,0-3.19,2.68C128.18,81.18,123.4,88.24,115.56,94Z" transform="translate(0 0)"/></svg>