<svg id="Capa_1" data-name="Capa 1" xmlns="http://www.w3.org/2000/svg" viewBox="0 0 192 192"><defs><style>.cls-1{fill:#ff5252;}</style></defs><title>doctor1</title><path class="cls-1" d="M261.76,172.07h-2.49v-2.13a3.31,3.31,0,0,0-6.54,0v2.13h-2.5a2.84,2.84,0,1,0,0,5.61h2.5v2.13a3.31,3.31,0,0,0,6.54,0v-2.13h2.49a2.84,2.84,0,1,0,0-5.61Z" transform="translate(-160 -160)"/><path class="cls-1" d="M351.86,342.41l-9.56-48c-1-5.2-5.35-9.38-11.25-10.9l-42.94-11.1a8.25,8.25,0,0,0-5.5.48,6.69,6.69,0,0,1-2.63-5v-9.18l.33-.25.52-.39H285a22.49,22.49,0,0,0,15.25-5.65,16.33,16.33,0,0,0,5.63-13.4l-1.17-15.77v-.24a6.56,6.56,0,0,0-.11-1.26l-1.3-17.67a3.16,3.16,0,0,0-3.48-2.62,3,3,0,0,0-3.06,3l.78,10.45a11.32,11.32,0,0,0-2.69-.32h-.18a6.17,6.17,0,0,0-4.44-2.26c-34-2.62-43.76-11.31-50.9-17.66-1.48-1.31-3.92-1.42-7.24-.3-5.76,2-15.58,8.24-15.79,19.48v.77a10.61,10.61,0,0,0-1.9.29l1-13.66c.54-7.27,4.81-13.75,11.63-17.87l.24.56c1.65,3.67,5.84,6.15,10.44,6.15h37.36c4.59,0,8.79-2.48,10.43-6.15l.06-.13a24.92,24.92,0,0,1,8.31,8.7,3.35,3.35,0,0,0,2.95,1.6,3.62,3.62,0,0,0,1.41-.28,2.64,2.64,0,0,0,1.54-3.74A31,31,0,0,0,288,178.42l2.26-5a6.06,6.06,0,0,0-.47-5.84,8.13,8.13,0,0,0-5.51-3.48l-18.79-3.27a53.18,53.18,0,0,0-18.15,0l-18.78,3.27a8.17,8.17,0,0,0-5.52,3.48,6.09,6.09,0,0,0-.47,5.84l2.09,4.66c-9.23,5-15.06,13.41-15.76,22.88l-1.55,21a7.34,7.34,0,0,0-.1,1.15v.24l-1.17,15.77a16.35,16.35,0,0,0,5.62,13.4A22.52,22.52,0,0,0,227,258.11h4.21l.52.39.33.24v9.19a6.67,6.67,0,0,1-2.64,5,8.21,8.21,0,0,0-5.49-.48L181,283.53c-5.9,1.53-10.21,5.71-11.25,10.91l-3.59,18a2.87,2.87,0,0,0,2.68,3.23,3.24,3.24,0,0,0,3.77-2.29l3.6-18a8.71,8.71,0,0,1,6.68-6.48l42.94-11.1a.65.65,0,0,1,.72.27h0L247,312.76a9,9,0,0,0,2.08,2.39A11,11,0,0,0,256,317.5a11.58,11.58,0,0,0,4.69-1,9.49,9.49,0,0,0,4.31-3.76l20.5-34.69a.64.64,0,0,1,.71-.27l43,11.1a8.74,8.74,0,0,1,6.68,6.48l9.57,48a2.33,2.33,0,0,1-.68,2.12,3.21,3.21,0,0,1-2.32.92H322.14l-5.35-26.82a3.25,3.25,0,0,0-3.78-2.29,2.88,2.88,0,0,0-2.68,3.23l5.16,25.88h-119l5.17-25.88a2.88,2.88,0,0,0-2.68-3.23,3.25,3.25,0,0,0-3.78,2.29l-5.35,26.82H169.58a3.23,3.23,0,0,1-2.32-.92,2.33,2.33,0,0,1-.67-2.12l3.33-16.7a2.88,2.88,0,0,0-2.68-3.23,3.25,3.25,0,0,0-3.77,2.29l-3.33,16.7a7.34,7.34,0,0,0,2.12,6.67,10.24,10.24,0,0,0,7.32,2.92H342.42a10.24,10.24,0,0,0,7.32-2.92A7.34,7.34,0,0,0,351.86,342.41ZM228.79,170.23a1.55,1.55,0,0,1,1.08-.68l18.79-3.27a45.39,45.39,0,0,1,15.54,0L283,169.55h0a1.55,1.55,0,0,1,1.08.68,1.15,1.15,0,0,1,.09,1.14L279.43,182a4.69,4.69,0,0,1-4.32,2.55H237.75a4.68,4.68,0,0,1-4.32-2.55l-4.73-10.58A1.18,1.18,0,0,1,228.79,170.23Zm70.59,69.19a11.22,11.22,0,0,1-3.87,9.2,15.16,15.16,0,0,1-8.25,3.74c3.6-3.82,7.13-8.86,8.13-14.62a11.22,11.22,0,0,0,3.8-.84Zm-82.89,9.2a11.22,11.22,0,0,1-3.87-9.2l.19-2.52a11.22,11.22,0,0,0,3.8.84c1,5.76,4.53,10.8,8.13,14.62A15.16,15.16,0,0,1,216.49,248.62Zm43.08,60.92-.41.69a2.83,2.83,0,0,1-.2.28l-.06.09-.13.14a2.87,2.87,0,0,1-.52.47l-.13.08a4,4,0,0,1-2.12.6,3.59,3.59,0,0,1-3.16-1.66l-13.59-23h33.5Zm16.49-27.92H235.93l-2.52-4.28a12,12,0,0,0,5.16-9.41v-4.84A35.19,35.19,0,0,0,256,267.35H256a35.19,35.19,0,0,0,17.39-4.26v4.84a12,12,0,0,0,5.16,9.41Zm0-27.37c-6.06,4.47-10.72,7.4-20,7.5-9.32-.1-14-3-20-7.5-8-5.92-12.92-13.16-13.08-19.36a3.08,3.08,0,0,0-3.27-2.74h-2.49a3.12,3.12,0,0,1-3.32-2.84v-6.26a2.45,2.45,0,0,1,0-.38s0-.09,0-.13a3.22,3.22,0,0,1,3.26-2.32h2.48a3.07,3.07,0,0,0,3.27-2.81v-3.47c.2-9.49,9.63-13.93,12.62-14.62,9.59,8.39,21.39,16,53.69,18.58a3.17,3.17,0,0,0,3.22,2.32h2.48a3.21,3.21,0,0,1,3.26,2.32s0,.09,0,.13a2.45,2.45,0,0,1,0,.38v6.26a3.12,3.12,0,0,1-3.32,2.84h-2.49a3.08,3.08,0,0,0-3.27,2.74C289,241.09,284.07,248.32,276,254.25Z" transform="translate(-160 -160)"/></svg>